<?xml version="1.0" encoding="UTF-8" standalone="no"?>
<!-- Created with Inkscape (http://www.inkscape.org/) -->

<svg
   width="36in"
   height="12in"
   viewBox="0 0 36 12"
   version="1.1"
   id="svg1"
   inkscape:version="1.3.2 (091e20ef0f, 2023-11-25)"
   sodipodi:docname="laserweld.raw.svg"
   inkscape:export-filename="laser.svg"
   inkscape:export-xdpi="96"
   inkscape:export-ydpi="96"
   xmlns:inkscape="http://www.inkscape.org/namespaces/inkscape"
   xmlns:sodipodi="http://sodipodi.sourceforge.net/DTD/sodipodi-0.dtd"
   xmlns="http://www.w3.org/2000/svg"
   xmlns:svg="http://www.w3.org/2000/svg">
  <sodipodi:namedview
     id="namedview1"
     pagecolor="#ffffff"
     bordercolor="#000000"
     borderopacity="0.25"
     inkscape:showpageshadow="2"
     inkscape:pageopacity="0.0"
     inkscape:pagecheckerboard="0"
     inkscape:deskcolor="#d1d1d1"
     inkscape:document-units="in"
     inkscape:zoom="0.50061276"
     inkscape:cx="1631.0012"
     inkscape:cy="510.37452"
     inkscape:window-width="1730"
     inkscape:window-height="1370"
     inkscape:window-x="211"
     inkscape:window-y="33"
     inkscape:window-maximized="0"
     inkscape:current-layer="layer3"
     showguides="true">
    <sodipodi:guide
       position="41.241125,16.952264"
       orientation="0,-1"
       id="guide2"
       inkscape:locked="false" />
    <sodipodi:guide
       position="26.939242,7.4131101"
       orientation="1,0"
       id="guide4"
       inkscape:locked="false" />
    <sodipodi:guide
       position="3.8990403,5.4268066"
       orientation="1,0"
       id="guide3"
       inkscape:locked="false" />
    <sodipodi:guide
       position="1.6331829,6.1514395"
       orientation="1,0"
       id="guide5"
       inkscape:locked="false" />
    <sodipodi:guide
       position="3.3188493,5.6015914"
       orientation="0,-1"
       id="guide6"
       inkscape:locked="false" />
    <sodipodi:guide
       position="5.5027965,6.9018209"
       orientation="0,-1"
       id="guide7"
       inkscape:locked="false" />
    <sodipodi:guide
       position="17.998775,16.723378"
       orientation="0,-1"
       id="guide8"
       inkscape:locked="false" />
  </sodipodi:namedview>
  <defs
     id="defs1" />
  <g
     inkscape:label="background"
     inkscape:groupmode="layer"
     id="layer1"
     sodipodi:insensitive="true">
    <rect
       style="fill:#f9f9f9;stroke-width:0.244801;stroke-linecap:round;stroke-linejoin:bevel;paint-order:markers fill stroke"
       id="rect174"
       width="36"
       height="12"
       x="0"
       y="0" />
  </g>
  <g
     inkscape:groupmode="layer"
     id="layer3"
     inkscape:label="text"
     style="display:inline">
    <g
       id="g175"
       transform="matrix(0.04406307,0,0,0.07154952,-1.3034063,-30.442197)"
       style="fill:#1a1a1a">
      <path
         d="m 729.51342,496.76823 v 13.10547 13.10546 l 24.38672,-0.2246 c 23.31428,-0.21517 24.56277,-0.27855 28.38476,-1.41407 12.63771,-3.75465 19.31369,-12.6171 17.25586,-22.90625 l -0.56814,-1.66601 h -8.926 -9.16211 l 0.23242,3.21289 c 0.4583,6.33594 -2.18395,10.89245 -7.79492,13.44922 -2.30835,1.05184 -3.41089,1.14247 -14.49023,1.16797 l -11.99414,0.0273 -0.14649,-8.92969 -0.14648,-8.92773 h -8.51563 z"
         style="fill:#1a1a1a;stroke-width:0.533033"
         id="path173"
         sodipodi:nodetypes="ccccsccccsscccccc" />
      <path
         d="m 652.75756,496.76823 v 4.86914 c 0,6.32042 0.7126,8.51705 3.88867,11.99219 3.00567,3.28866 7.21988,5.52185 13.54297,7.17773 6.03254,1.57979 11.52809,1.91901 32.54101,2.00391 l 18.78907,0.0762 v -3.99805 -3.99805 l -17.19141,-0.002 c -9.45466,-0.002 -18.58646,-0.23225 -20.29297,-0.51172 -8.9955,-1.47324 -14.2207,-6.90056 -14.2207,-14.77148 v -2.83789 h -8.52735 z"
         style="fill:#1a1a1a;stroke-width:0.533033"
         id="path172" />
      <path
         d="m 576.0017,496.76823 v 7.74609 c 0,5.35637 0.225,8.28644 0.73047,9.49609 0.83308,1.99394 4.07165,4.7503 7.08398,6.0293 5.06675,2.15131 6.06059,2.21663 33.91797,2.26563 l 27.07422,0.0488 -0.15625,-3.86523 -0.15625,-3.86328 -23.98633,-0.26758 c -25.59609,-0.2844 -25.49664,-0.27321 -26.92773,-2.94726 -0.33322,-0.62269 -0.52724,-1.95348 -0.43164,-2.95704 l 0.17382,-1.82421 25.71875,-0.13868 25.71875,-0.13867 V 502.36 498.36782 H 618.9099 c -22.62424,0 -25.85156,-0.10104 -25.85156,-0.80078 0,-0.6774 -1.30372,-0.79883 -8.5293,-0.79883 z"
         style="fill:#1a1a1a;stroke-width:0.533033"
         id="path171" />
      <path
         d="m 493.3806,496.76823 v 7.92968 c 0,8.60249 -0.30738,9.56629 -2.85156,8.92774 -0.95608,-0.23995 -2.42929,-2.34127 -6.0039,-8.57031 l -4.73633,-8.25391 -8.69336,-0.0176 c -4.78128,-0.009 -8.58845,0.1649 -8.46094,0.38477 0.12753,0.21989 2.44603,4.35805 5.1543,9.19531 2.70829,4.83727 5.43347,9.34942 6.05469,10.02734 1.4723,1.60667 4.04873,3.17721 7.7539,4.73047 2.79389,1.17126 3.54627,1.24194 11.51758,1.07422 6.5169,-0.13711 9.18144,-0.40757 11.29883,-1.14844 3.3133,-1.15929 5.76542,-3.40135 6.22265,-5.6875 0.18348,-0.91744 0.33399,-5.47486 0.33399,-10.1289 v -8.46289 h -8.79492 z"
         style="fill:#1a1a1a;stroke-width:0.533033"
         id="path170" />
      <path
         d="m 297.75756,496.76823 v 8.0664 c 0,9.25214 0.39717,10.41008 4.53906,13.25977 5.9287,4.07907 6.61963,4.15714 37.19336,4.21094 l 27.07617,0.0488 -0.15625,-3.86523 -0.1582,-3.86328 -24.08399,-0.26758 -24.08593,-0.26562 -1.65821,-1.58985 c -1.40038,-1.34203 -1.63333,-1.92151 -1.5,-3.73047 l 0.15821,-2.14257 25.71875,-0.13868 25.71875,-0.13867 V 502.36 498.36782 h -25.60352 c -22.26587,0 -25.64136,-0.10544 -25.9082,-0.80078 -0.25492,-0.66431 -1.74081,-0.79883 -8.7793,-0.79883 z"
         style="fill:#1a1a1a;stroke-width:0.533033"
         id="path169" />
      <path
         d="m 162.38451,496.76823 -9.73633,0.0234 -9.73632,0.0215 -7.4629,11.74609 c -4.10434,6.46023 -7.77065,12.32713 -8.14648,13.03711 l -0.68164,1.29102 h 41.85351 41.85352 l -2.18945,-3.59766 c -3.59149,-5.89783 -13.37334,-21.13545 -14.03711,-21.86719 -0.46463,-0.51223 -2.93178,-0.64331 -10.04688,-0.5332 l -9.43164,0.14649 5.59961,8.38671 c 3.07956,4.61325 5.59766,8.51139 5.59766,8.66211 0,0.15073 -7.81959,0.27344 -17.37891,0.27344 -14.94211,0 -17.34022,-0.10689 -17.08594,-0.76953 0.16268,-0.42393 2.71047,-4.38354 5.66211,-8.79688 z"
         style="fill:#1a1a1a;stroke-width:0.533033"
         id="path168" />
      <path
         d="m 49.095448,496.76823 c 0.183973,27.63883 11.244735,25.8657 50.077907,26.11431 l 18.884985,0.009 c 0.12211,-2.65895 -0.0379,-5.34916 0.0171,-8.02142 -49.64301,0.0727 -51.604177,1.82203 -51.545148,-18.1353 z"
         style="fill:#1a1a1a;stroke-width:0.533033"
         id="path167"
         sodipodi:nodetypes="cccccc" />
      <path
         d="m 519.0056,496.74284 3.91407,7.89648 c 3.38357,6.82642 4.33745,8.28292 7.04297,10.75977 3.32541,3.04434 7.15717,5.08195 11.60156,6.16992 3.51816,0.86122 15.45314,0.96519 18.92383,0.16406 3.16098,-0.72965 6.28395,-3.11493 7.3164,-5.58594 0.52206,-1.24949 0.73438,-4.29288 0.73438,-10.5664 v -8.8125 h -8.79492 -8.79493 v 6.96484 c 0,7.45345 -0.4046,9.02539 -2.31836,9.02539 -1.81611,0 -3.95547,-2.57626 -7.88085,-9.49414 l -3.53516,-6.22851 -9.10352,-0.14649 z"
         style="fill:#1a1a1a;stroke-width:0.533033"
         id="path166" />
      <path
         d="m 434.20287,496.70573 c -4.73438,-0.004 -9.86501,0.27692 -11.44922,0.84765 -3.20881,1.15601 -30.54732,1.16794 -30.99023,0.0137 -0.25492,-0.66431 -1.73885,-0.79883 -8.77735,-0.79883 h -8.47265 v 12.70312 c 0,6.98718 0.16003,12.86511 0.35547,13.06055 0.19544,0.19546 4.15309,0.35547 8.79492,0.35547 h 8.4414 v -8.28321 -8.2832 l 17.04297,0.1543 c 21.09847,0.19126 19.38727,-0.6352 19.64453,9.49609 l 0.17579,6.91602 h 8.75195 8.7539 v -6.98242 c 0,-5.36829 -0.20258,-7.40916 -0.875,-8.82618 -1.11693,-2.35376 -3.84762,-4.44204 -5.83789,-4.46484 l -1.54882,-0.0176 1.33203,-1.08984 c 3.18864,-2.60541 3.73047,-3.17734 3.73047,-3.93555 0,-0.57219 -4.33789,-0.86087 -9.07227,-0.86523 z"
         style="fill:#1a1a1a;stroke-width:0.533033"
         id="path165" />
      <path
         d="m 217.47509,496.68352 c -0.40655,2.00019 4.02143,5.37823 6.57153,6.66869 4.96802,2.51404 5.95397,2.62917 25.56641,2.96094 17.95202,0.30369 18.81633,0.3645 20.25586,1.43555 2.08362,1.55028 2.25606,3.83509 0.41992,5.56054 l -1.40039,1.31641 -25.8086,0.14648 -25.81054,0.14844 v 4.01953 4.01953 l 29.18359,-0.18945 29.18359,-0.19141 3.95118,-1.41992 c 6.63596,-2.38749 10.17382,-6.05103 10.17382,-10.53125 0,-4.49385 -3.56826,-8.17734 -10.17382,-10.49804 -3.88835,-1.36609 -4.24719,-1.39144 -22.98047,-1.70704 -14.15433,-0.23845 -18.57079,-0.30495 -20.78055,-1.73372 -13.30959,0.10856 -5.88395,0.0905 -18.35153,-0.005 z"
         style="fill:#1a1a1a;stroke-width:0.533033"
         id="path164"
         sodipodi:nodetypes="cssscccccccccssscc" />
      <path
         d="m 511.05834,482.59635 c -1.93719,0.0192 -3.77783,0.11277 -5.32227,0.29102 -7.76729,0.89643 -10.95307,2.76837 -12.00976,7.06054 l -0.35352,1.44336 h 20.22656 20.22852 l -1.09766,-1.85937 c -1.08707,-1.84247 -4.12289,-4.20837 -6.98632,-5.44336 -2.18978,-0.94447 -8.87398,-1.5497 -14.68555,-1.49219 z"
         style="fill:#1a1a1a;stroke-width:0.533033"
         id="path153" />
      <path
         d="m 463.34154,482.49674 c -4.58626,-0.0807 -8.33984,0.0172 -8.33984,0.21875 0,0.20155 1.10211,2.24711 2.44922,4.54492 l 2.44922,4.17774 h 8.47851 c 4.66283,0 8.47852,-0.10083 8.47852,-0.22461 0,-0.12376 -1.16619,-2.10358 -2.58985,-4.39844 l -2.58789,-4.17187 z"
         style="fill:#1a1a1a;stroke-width:0.533033"
         id="path152" />
      <path
         d="m 374.51342,482.3776 v 4.5293 4.53125 h 8.47265 c 7.0385,0 8.52243,-0.13452 8.77735,-0.79883 0.45663,-1.18998 26.7547,-1.17987 30.25195,0.0117 1.86226,0.6345 4.4786,0.78007 11.95508,0.66602 l 9.57226,-0.14649 -2.41796,-2.39844 c -1.32963,-1.31925 -3.53438,-2.94799 -4.89844,-3.61914 -5.18299,-2.55013 -7.86866,-2.75758 -35.72656,-2.76758 z"
         style="fill:#1a1a1a;stroke-width:0.533033"
         id="path151" />
      <path
         d="m 652.75756,482.37565 v 4.53125 4.53125 h 8.52929 8.52735 v -4.53125 -4.53125 h -8.52735 z"
         style="fill:#1a1a1a;stroke-width:0.533033"
         id="path150" />
      <path
         d="m 644.76146,482.37565 -26.25195,0.0195 c -27.7683,0.0199 -29.87584,0.17333 -35.3125,2.58203 -2.46293,1.0912 -7.19531,5.06364 -7.19531,6.03906 0,0.23212 4.16617,0.42188 9.25976,0.42188 6.86952,0 6.92991,-0.61639 8.57592,-1.30057 3.06402,-1.27359 23.33709,-0.80542 28.48377,-0.76708 l 22.40901,0.16696 0.0313,-3.42939 z"
         style="fill:#1a1a1a;stroke-width:0.533033"
         id="path149"
         sodipodi:nodetypes="ccsssssccc" />
      <path
         d="m 366.51928,482.37565 -26.25196,0.0195 c -27.61615,0.0197 -29.90666,0.18333 -35.14062,2.50977 -2.43661,1.08305 -7.36914,5.14495 -7.36914,6.06836 0,0.25583 4.28807,0.46484 9.52929,0.46484 7.26482,0 9.98453,-0.18929 11.44336,-0.79883 1.60036,-0.66869 5.66852,-0.80078 24.85157,-0.80078 h 22.9375 v -3.73047 z"
         style="fill:#1a1a1a;stroke-width:0.533033"
         id="path148" />
      <path
         d="m 289.76146,482.37565 -27.58398,0.01 c -29.80227,0.01 -31.73691,0.61415 -37.99531,2.61374 -2.98119,0.9525 -6.40204,2.24513 -6.37969,5.90384 4.15456,1.91078 20.02807,1.74104 20.97266,-0.26562 v 0.002 c 1.60691,-0.67143 5.8467,-0.80078 26.45117,-0.80078 h 24.53515 v -3.73047 z"
         style="fill:#1a1a1a;stroke-width:0.533033"
         id="path147"
         sodipodi:nodetypes="ccscccsccc" />
      <path
         d="m 49.364981,482.37565 v 4.53125 4.53125 h 8.527344 8.529297 v -4.53125 -4.53125 h -8.529297 z"
         style="fill:#1a1a1a;stroke-width:0.533033"
         id="path146" />
      <path
         d="m 550.94896,482.35026 v 4.54297 4.54492 h 8.81641 8.81641 l -0.1543,-4.39844 -0.15625,-4.39648 -8.66211,-0.14649 z"
         style="fill:#1a1a1a;stroke-width:0.533033"
         id="path145" />
      <path
         d="m 729.51342,482.31901 v 4.55859 4.56055 h 8.47265 c 7.03848,0 8.43118,-0.1772 8.77735,-0.79883 0.67331,-1.2091 2.72266,-2.47249 15.10551,-2.48917 10.00366,-0.0135 14.70076,0.81739 15.95575,1.43773 1.96857,0.97306 2.06171,1.55849 7.92507,1.66082 l 10.66015,0.18554 -2.12695,-1.89648 c -2.45066,-2.18677 -7.21949,-4.5855 -11.77149,-5.91992 -2.75513,-0.80768 -6.34666,-0.95044 -28.07812,-1.11328 z"
         style="fill:#1a1a1a;stroke-width:0.533033"
         id="path144"
         sodipodi:nodetypes="cccsssscccscc" />
      <path
         d="m 169.44701,482.30729 c -5.69621,-0.10354 -11.51296,0.55364 -15.3418,2.01172 -2.53223,0.96432 -3.62522,1.86805 -5.71484,4.7207 l -1.5625,2.13086 6.03711,0.29492 c 11.58841,0.56327 12.27334,0.9189 13.72266,-0.42773 1.73105,-1.6084 1.74192,-1.59796 3.28515,0 1.11096,1.15036 3.066,0.93359 10.92774,0.93359 5.10668,0 9.28515,-0.15833 9.28515,-0.35156 0,-1.02734 -4.43419,-6.00356 -6.01953,-6.75586 -3.3476,-1.58854 -8.92293,-2.4531 -14.61914,-2.55664 z"
         style="fill:#1a1a1a;stroke-width:0.533033"
         id="path143"
         sodipodi:nodetypes="sscccssssss" />
    </g>
    <path
       d="m 34.51644,6.4186529 0.01899,0.6072517 -0.12999,-0.250846 -0.148541,-0.0094 0.164468,0.3129926 -0.432746,-0.4413777 -0.122945,0.1229402 0.418701,0.411798 -0.270494,-0.092719 -0.08383,0.1036438 0.29908,0.1288055 -23.585466,0.066403 23.589434,0.055822 -0.241826,0.1118389 -0.01142,0.1473627 0.311195,-0.1289106 -0.425396,0.425395 0.122946,0.1229868 0.437945,-0.4917035 -0.169669,0.3632706 0.131277,9.619e-4 0.142074,-0.2767403 -0.01381,0.6228361 h 0.173891 l -0.01208,-0.6072977 0.133394,0.2784667 0.13821,-0.018219 -0.201455,-0.3657118 0.469685,0.4941444 0.12297,-0.1229867 -0.462517,-0.4380575 0.336656,0.163627 -0.0026,-0.1450747 -0.314514,-0.133287 0.661513,0.024971 V 7.2879997 l -0.673121,0.00433 0.283882,-0.1323936 0.0301,-0.1606112 -0.308272,0.1491651 0.44878,-0.3882991 -0.122971,-0.1229403 -0.431883,0.4284317 0.163652,-0.3000454 -0.138206,0.021486 -0.161015,0.2353122 0.0397,-0.6038023 z"
       style="fill:#d40000;stroke:none;stroke-width:0.0244446"
       id="path174"
       sodipodi:nodetypes="cccccccccccccccccccccccccccccccccccccccccccccccc" />
  </g>
</svg>
