<?xml version="1.0" encoding="UTF-8" standalone="no"?>
<!-- Created with Inkscape (http://www.inkscape.org/) -->

<svg
   width="36in"
   height="12in"
   viewBox="0 0 36 12"
   version="1.1"
   id="svg1"
   xmlns="http://www.w3.org/2000/svg"
   xmlns:svg="http://www.w3.org/2000/svg">
  <defs
     id="defs1" />
  <g
     id="layer1">
    <rect
       style="fill:#f9f9f9;stroke-width:0.244801;stroke-linecap:round;stroke-linejoin:bevel;paint-order:markers fill stroke"
       id="rect174"
       width="36"
       height="12"
       x="0"
       y="0" />
  </g>
  <g
     id="layer3"
     style="display:inline">
    <path
       d="m 33.527663,7.4643089 0.02549,0.8152367 -0.174512,-0.3367613 -0.199417,-0.012619 0.220799,0.4201932 -0.580962,-0.5925505 -0.165054,0.1650475 0.562107,0.5528397 -0.363139,-0.1244755 -0.112542,0.139142 0.401516,0.1729217 -31.6635372,0.089146 31.6688642,0.074941 -0.324652,0.150144 -0.01533,0.1978347 0.41778,-0.1730628 -0.571095,0.5710937 0.165055,0.16511 0.587943,-0.6601129 -0.227781,0.4876915 0.176239,0.00129 0.190735,-0.3715245 -0.01854,0.8361589 h 0.233451 l -0.01622,-0.8152985 0.179081,0.3738421 0.185547,-0.024459 -0.270453,-0.4909689 0.630553,0.6633899 0.165087,-0.1651099 -0.62093,-0.5880931 0.451962,0.2196696 -0.0035,-0.1947631 -0.422236,-0.1789381 0.888083,0.033524 v -0.23338 l -0.903666,0.00581 0.381112,-0.1777387 0.04041,-0.2156208 -0.413856,0.2002544 0.602488,-0.5212923 -0.165088,-0.1650476 -0.579804,0.5751704 0.219703,-0.4028116 -0.185542,0.028845 -0.216163,0.3159072 0.0533,-0.8106059 z"
       style="fill:#d40000;stroke:none;stroke-width:0.0328169"
       id="path174" />
  </g>
</svg>
