<?xml version="1.0" encoding="UTF-8" standalone="no"?>
<!-- Created with Inkscape (http://www.inkscape.org/) -->

<svg
   width="1920"
   height="300"
   viewBox="0 0 1920 300"
   version="1.1"
   id="svg1"
   xml:space="preserve"
   inkscape:version="1.4.2 (ebf0e940d0, 2025-05-08)"
   sodipodi:docname="logo.svg"
   inkscape:export-filename="/tmp/logo.svg"
   inkscape:export-xdpi="96"
   inkscape:export-ydpi="96"
   xmlns:inkscape="http://www.inkscape.org/namespaces/inkscape"
   xmlns:sodipodi="http://sodipodi.sourceforge.net/DTD/sodipodi-0.dtd"
   xmlns="http://www.w3.org/2000/svg"
   xmlns:svg="http://www.w3.org/2000/svg"><sodipodi:namedview
     id="namedview1"
     pagecolor="#ffffff"
     bordercolor="#cccccc"
     borderopacity="1"
     inkscape:showpageshadow="0"
     inkscape:pageopacity="1"
     inkscape:pagecheckerboard="0"
     inkscape:deskcolor="#d1d1d1"
     inkscape:document-units="px"
     inkscape:zoom="0.37453704"
     inkscape:cx="858.39308"
     inkscape:cy="276.34116"
     inkscape:window-width="2499"
     inkscape:window-height="1022"
     inkscape:window-x="51"
     inkscape:window-y="35"
     inkscape:window-maximized="1"
     inkscape:current-layer="layer1" /><defs
     id="defs1" /><g
     inkscape:label="Layer 1"
     inkscape:groupmode="layer"
     id="layer1"><path
       style="fill:#000000"
       id="path1"
       d="" /><path
       style="fill:#ff0000;stroke-width:0.86702"
       d="m 1811.97,185.00277 c -1.659,-1.3945 -1.8092,-4.162 -0.6099,-11.24228 0.875,-5.16581 1.0624,-8.95901 0.4162,-8.42934 -0.6461,0.5297 -2.2443,0.0863 -3.5515,-0.98537 -1.9833,-1.62576 -2.0112,-3.00411 -0.169,-8.32331 4.6751,-13.49934 8.6169,-28.80925 6.5633,-25.4922 -1.1834,1.91163 -6.9766,11.82434 -12.8737,22.0282 -5.8972,10.20388 -11.2626,18.53693 -11.9231,18.51791 -0.6606,-0.019 -2.291,-0.94975 -3.6233,-2.06827 -1.9256,-1.61648 -0.6435,-4.73776 6.2497,-15.21569 12.3874,-18.82948 25.9803,-36.06219 25.9803,-32.93691 0,1.46756 1.1497,2.08308 2.555,1.36783 1.4051,-0.71526 2.5549,-0.1354 2.5549,1.28856 0,1.42398 1.6776,0.51606 3.7277,-2.01757 2.0503,-2.53364 4.3098,-4.60661 5.0213,-4.60661 2.3684,0 -2.2451,-13.61642 -5.3633,-15.83003 -2.2917,-1.62675 -4.0805,-1.01406 -7.06,2.41806 -3.9,4.4926 -3.9034,4.53066 -0.1521,1.67816 4.9575,-3.76984 9.788,-0.0876 9.788,7.46143 0,4.86199 -0.7663,5.42511 -7.6649,5.63296 -7.4847,0.2255 -14.4432,3.34294 -37.9352,16.99509 -11.4605,6.66026 -14.8669,6.84937 -14.8669,0.82539 0,-2.02716 6.4787,-5.79479 18.2248,-10.59836 l 18.2249,-7.45306 -162.5792,-1.16914 c -89.4186,-0.64303 -306.2948,-1.4972 -481.9472,-1.89817 -175.65225,-0.40097 -323.20024,-1.43297 -327.8843,-2.29334 -8.47127,-1.55601 556.8196,-4.80443 836.269,-4.80561 l 146.4342,-6e-4 -15.2805,-10.455065 c -8.4043,-5.750285 -15.5086,-10.712679 -15.7874,-11.027543 -0.2788,-0.314875 0.6587,-2.118683 2.0835,-4.008459 2.3183,-3.075093 1.9524,-4.081366 -3.4834,-9.58088 -5.5412,-5.606158 -5.8372,-6.458608 -3.3766,-9.722522 2.9829,-3.956483 2.376,-4.545972 26.3075,25.556099 l 10.8044,13.59011 -8.9461,-18.848777 c -6.9846,-14.716486 -8.4376,-19.265461 -6.6273,-20.749464 1.2752,-1.045383 2.9028,-1.421783 3.6167,-0.836427 0.7141,0.585357 0.1283,-2.650468 -1.302,-7.190723 -2.8498,-9.047281 -2.1921,-14.505437 1.748,-14.505437 1.47,0 3.3656,3.65498 4.4998,8.676227 1.6529,7.31806 2.5716,8.521057 5.8689,7.685003 3.7244,-0.944396 3.9674,-0.165485 5.1445,16.496885 0.6794,9.618458 1.7879,16.072892 2.4631,14.343204 0.6752,-1.729708 2.1943,-13.56594 3.3758,-26.302765 2.0507,-22.108325 2.3323,-23.157852 6.2144,-23.157852 4.5493,0 4.5651,0.07519 2.5017,11.86135 -1.3132,7.501485 -1.1135,8.472376 1.7439,8.472376 4.2174,0 4.1271,1.002731 -1.8087,20.095654 -2.7696,8.909182 -4.4288,15.700915 -3.687,15.092762 0.7419,-0.608175 6.2656,-9.760162 12.2749,-20.337746 11.78,-20.734953 13.8939,-23.024247 16.8697,-18.268323 1.5126,2.417553 0.5957,5.05697 -4.2046,12.104952 -5.2426,7.69708 -5.5919,8.823493 -2.3926,7.713725 3.1633,-1.097214 3.5993,-0.552273 2.8002,3.500143 -0.9218,4.67562 -0.7864,4.65565 5.2363,-0.772831 7.1289,-6.425432 9.7419,-6.93874 11.1176,-2.183874 0.6956,2.404525 -1.8485,5.353585 -8.7601,10.154575 -5.7164,3.970745 -7.8053,6.203123 -5.0563,5.403632 3.5249,-1.025166 4.684,-0.502277 4.684,2.113047 0,2.389422 -4.923,5.589564 -15.7555,10.241734 l -15.7555,6.7664 24.4475,-1.30764 c 23.3963,-1.25143 24.42,-1.12274 23.8105,2.99418 -0.5624,3.79948 -2.1244,4.27186 -13.3758,4.04516 -7.0067,-0.14118 -10.2482,0.17436 -7.2037,0.7012 3.3476,0.57925 5.5358,2.24359 5.5358,4.21045 0,4.15221 -3.8494,4.09926 -17.9792,-0.24733 -6.2575,-1.92494 -11.6203,-3.17765 -11.9171,-2.78382 -0.297,0.39384 8.2145,6.79807 18.9143,14.23158 10.6998,7.43354 19.4524,14.02386 19.4502,14.64517 0,0.62131 -0.6932,2.57429 -1.5358,4.33996 -1.3168,2.75972 -2.0901,2.73239 -5.5096,-0.19473 -13.9695,-11.95821 -14.3351,-12.20494 -11.8,-7.96425 1.6763,2.80385 1.8589,4.72509 0.6072,6.38546 -1.2518,1.66036 -4.0231,-0.23781 -9.2108,-6.30884 -4.0811,-4.77606 -7.6786,-9.45793 -7.9945,-10.40413 -0.3159,-0.94619 -2.0592,-2.77442 -3.8739,-4.06271 -2.2797,-1.61826 -0.8784,2.66813 4.5329,13.86609 5.3823,11.1381 7.2828,16.93764 6.0753,18.53945 -1.2078,1.60185 -2.5843,1.42081 -4.4006,-0.5787 -2.0574,-2.26468 -1.8928,-0.71584 0.742,6.98663 4.4245,12.93472 4.36,16.03098 -0.3156,15.13692 -2.5772,-0.49281 -4.2717,-3.02691 -5.3389,-7.98424 -1.1857,-5.50827 -2.4335,-7.14528 -5.1666,-6.77789 -3.1717,0.42634 -3.777,-1.13957 -5.0518,-13.07146 -2.3811,-22.28572 -3.1932,-21.55109 -6.0466,5.46921 -2.6726,25.30913 -3.9121,29.08261 -8.3322,25.36736 z"
       id="path2"
       sodipodi:nodetypes="ssssssssssssssssssssssscsssscsssssscsssssssssssssssssssssssssscsssssssscsssssssssssssssss" /><path
       style="fill:#000000;stroke-width:1.14758"
       d="m 380.89164,217.74228 c -21.23355,-0.8671 -21.42421,-0.93625 -21.80528,-7.91001 -0.21143,-3.86941 -0.50354,-8.97442 -0.64912,-11.34447 -0.50572,-8.23349 -3.21496,-7.16157 -14.35136,5.6781 l -11.19881,12.91166 h -62.00563 c -39.6061,0 -62.00563,-0.93797 -62.00563,-2.59647 0,-1.42806 1.16842,-2.59646 2.59647,-2.59646 1.42805,0 2.59647,-1.24963 2.59647,-2.77696 0,-2.45054 22.81843,-33.25897 41.41603,-55.91811 3.64021,-4.4352 11.26915,-14.07457 16.95321,-21.42083 l 10.33465,-13.35685 h 29.26145 c 16.09379,0 29.26145,0.98964 29.26145,2.19918 0,2.08992 -2.10576,4.82838 -16.98251,22.08511 -3.51212,4.074 -6.38569,8.34499 -6.38569,9.49108 0,1.1461 -4.2449,7.16011 -9.43312,13.36445 l -9.43313,11.28065 26.64833,0.74367 c 14.65658,0.40903 27.1767,0.21532 27.82248,-0.43045 0.64577,-0.64578 -0.67481,-12.80396 -2.93465,-27.01817 -2.25983,-14.21421 -4.10878,-27.16511 -4.10878,-28.77977 0,-1.98812 8.40185,-2.93575 26.02892,-2.93575 25.8615,0 26.04598,0.0449 28.68283,6.98032 1.45965,3.83918 2.42541,9.38913 2.14614,12.33322 -0.27927,2.94408 0.17024,7.1055 0.99893,9.24757 0.82869,2.14209 2.0344,7.98413 2.67937,12.98233 0.64497,4.9982 2.53574,18.90099 4.20171,30.89511 3.34413,24.07601 2.5856,29.08055 -4.28859,28.29509 -2.54392,-0.29068 -14.26469,-0.92213 -26.04614,-1.40324 z m 44.37353,-1.33157 c -1.25243,-2.03209 4.91798,-11.68195 18.2515,-28.54339 l 7.69952,-9.73674 h 51.49475 51.49475 v -7.7894 -7.78939 l -30.50847,-0.14656 c -16.77965,-0.0806 -34.48701,-1.54111 -39.34966,-3.24558 -10.95976,-3.84163 -23.3035,-18.7683 -26.22213,-31.70912 l -2.20019,-9.75534 56.24167,1.89284 c 30.93292,1.04107 60.66251,2.33265 66.06576,2.87019 12.94136,1.28745 21.39449,7.7292 28.20486,21.49363 4.53132,9.15825 5.30496,14.19269 4.14563,26.97788 -0.80287,8.85419 -2.93575,16.67597 -4.88408,17.91106 -1.90233,1.20592 -2.50291,2.21049 -1.33463,2.23235 3.49252,0.0654 -8.59066,15.48227 -15.88477,20.26733 -5.87799,3.85607 -16.95698,4.60929 -84.38487,5.73709 -42.69019,0.71402 -78.16353,0.41395 -78.82964,-0.66685 z m 386.6397,1.22513 c -14.63755,-0.40698 -26.61377,-1.32097 -26.61377,-2.03112 0,-1.23704 4.16949,-12.49254 25.90491,-69.92996 l 9.82555,-25.96465 28.87116,-0.73415 c 15.87912,-0.40378 28.87117,-0.25858 28.87117,0.32268 0,0.58124 -1.7846,6.16945 -3.96568,12.41823 l -3.96579,11.36142 9.80775,-10.61766 9.80776,-10.61768 37.64874,-1.70603 c 20.70685,-0.93833 45.61429,-1.71031 55.34986,-1.71553 17.14767,-0.009 17.64627,0.17317 15.94568,5.83253 -0.96546,3.21313 -5.93308,10.20118 -11.03911,15.529 -9.71422,10.13608 -23.7384,16.00224 -45.59719,19.07272 l -12.60371,1.77044 28.13821,28.22573 28.13821,28.22575 -33.7098,-0.0194 -33.7098,-0.0194 -27.22497,-25.85331 c -14.9738,-14.21931 -27.88494,-25.01838 -28.69134,-23.99794 -1.58698,2.00801 -10.43663,24.50419 -15.76023,40.06307 -1.81535,5.30563 -4.54119,9.97927 -6.05725,10.38587 -1.51617,0.40659 -14.7328,0.40628 -29.37036,-6.9e-4 z m 739.04453,-1.77165 c -0.6438,-5.77429 0.8422,-12.41931 4.8369,-21.62938 2.2933,-5.28719 4.4893,-10.78148 4.8802,-12.20954 2.5718,-9.39916 10.3617,-28.69999 11.8568,-29.37798 0.9908,-0.44928 1.2034,-2.37581 0.4721,-4.28117 -0.7311,-1.90538 -0.081,-4.23567 1.4441,-5.17843 1.5255,-0.94275 2.7735,-4.56617 2.7735,-8.05202 0,-3.48586 1.3632,-6.33793 3.0293,-6.33793 1.666,0 2.2603,-0.7688 1.3207,-1.70846 -0.9396,-0.93964 -0.407,-3.27646 1.1834,-5.19292 3.5259,-4.24841 59.3783,-5.08369 59.3783,-0.88802 0,1.42807 -1.2374,2.59647 -2.7497,2.59647 -1.5124,0 -2.1379,0.98992 -1.3902,2.19983 0.7478,1.20991 -2.6377,13.38381 -7.5233,27.05311 l -8.8829,24.85326 9.6191,-1.19305 c 23.5756,-2.92412 52.4992,-23.40695 63.7187,-45.12375 l 6.0364,-11.6841 29.0064,-0.73415 c 17.8226,-0.45109 29.0065,0.25263 29.0065,1.82517 0,7.92741 -17.588,37.2272 -21.059,35.08205 -1.2374,-0.76478 -1.6106,0.27515 -0.8294,2.31092 2.1783,5.67655 -29.0409,35.59705 -47.1344,45.17364 -19.2889,10.20932 -26.9303,11.60206 -69.8881,12.73822 -18.5648,0.491 -41.6409,1.24077 -51.2803,1.66615 -10.6916,0.47182 -17.6427,-0.2722 -17.8251,-1.90792 z M 59.728986,206.26674 c 2.09786,-5.94594 5.11012,-12.37219 6.693912,-14.28056 1.583803,-1.90836 2.169411,-3.46975 1.301373,-3.46975 -0.868049,0 0.85289,-6.13414 3.824319,-13.63144 2.971417,-7.49728 5.778054,-15.38405 6.236969,-17.52614 0.458916,-2.14208 3.567445,-11.48935 6.907831,-20.77171 l 6.073441,-16.87703 29.332699,-0.73543 c 28.88628,-0.72425 29.28925,-0.65428 26.47859,4.59747 -1.56974,2.9331 -2.14689,6.47717 -1.28254,7.87572 0.86434,1.39854 0.33418,2.5428 -1.17816,2.5428 -1.51234,0 -2.56421,0.87631 -2.33749,1.94735 0.22671,1.07105 -0.31385,3.69996 -1.20127,5.84204 -0.88741,2.14209 -4.41756,11.48936 -7.84478,20.77173 l -6.23129,16.87701 45.08131,-0.81647 c 24.79472,-0.44906 45.07989,0.13514 45.07814,1.29823 -0.003,2.20299 -7.07359,10.873 -22.36901,27.43025 l -8.99471,9.73675 h -64.6918 -64.691811 z m 549.002484,10.02274 c 0,-1.40269 17.46129,-51.81132 25.72326,-74.25991 4.41692,-12.00124 8.03078,-22.22482 8.03078,-22.71907 0,-0.49423 13.38488,-0.89862 29.74418,-0.89862 h 29.74417 l -3.8189,10.82392 -3.8189,10.82391 5.77546,-4.98187 c 3.1765,-2.74003 8.15996,-7.09373 11.07435,-9.67491 4.60043,-4.07442 9.6737,-4.62094 38.48762,-4.14606 18.25376,0.30084 32.85896,1.30609 32.45581,2.23389 -0.40314,0.92781 -9.63171,10.09609 -20.50797,20.37397 l -19.77514,18.68706 h -27.54371 -27.5437 l -4.02806,7.78939 -4.02805,7.7894 h 54.59245 c 30.02588,0 54.59249,0.69201 54.59249,1.5378 0,2.25229 -9.25003,13.77065 -21.18023,26.37419 l -10.44546,11.03499 h -73.76523 c -40.57088,0 -73.76522,-0.35464 -73.76522,-0.78808 z m 408.87863,-5.05398 c -0.804,-3.21312 -1.7026,-25.12079 -1.9968,-48.68371 l -0.535,-42.84168 25.3155,-0.74313 25.3157,-0.74314 0.083,7.23429 0.083,7.23431 5.3273,-7.14029 5.3272,-7.14027 h 42.6252 c 42.3166,0 42.625,0.0418 42.625,5.77066 v 5.77066 l 4.0419,-5.77066 c 3.6829,-5.25805 6.1815,-5.77066 28.1284,-5.77066 13.2475,0 24.7723,0.68588 25.6106,1.52416 0.8383,0.8383 -6.1479,13.39869 -15.525,27.912 -48.3404,74.81937 -42.8052,69.22952 -68.553,69.22952 -11.0731,0 -20.7762,-1.04113 -21.5626,-2.31361 -0.7864,-1.27249 -2.773,-14.12499 -4.4146,-28.56112 -1.6415,-14.43612 -3.7284,-26.24751 -4.6375,-26.24751 -2.1215,0 -11.7938,11.08222 -11.851,13.57868 -0.024,1.04202 -6.8211,11.26561 -15.1047,22.71907 l -15.0613,20.82449 h -21.8889 c -20.5356,0 -21.9793,-0.36123 -23.3508,-5.84206 z m 194.9536,0 c 0.9911,-3.21312 3.4304,-9.04293 5.4204,-12.95512 1.9901,-3.91218 3.6267,-7.69724 3.6369,-8.41125 0.026,-1.89479 0.9438,-4.65341 13.1788,-39.65055 l 11.1195,-31.8067 h 29.3325 c 16.1328,0 29.3324,0.43731 29.3324,0.97179 0,0.53448 -1.7536,5.94205 -3.897,12.01681 l -3.8968,11.04504 11.6283,-10.71858 11.6283,-10.7186 h 31.0623 c 17.0843,0 31.6999,1.03151 32.479,2.29224 1.8285,2.95848 -32.291,34.35036 -35.3082,32.48562 -1.2547,-0.77539 -1.9601,0.13756 -1.5676,2.02878 0.547,2.63682 -6.2069,3.74128 -28.9665,4.73681 l -29.6799,1.29823 -1.9022,7.14027 -1.9024,7.14029 45.8628,0.27513 c 25.2245,0.15132 49.2413,0.0459 53.3706,-0.23426 6.0504,-0.41049 7.1846,0.33349 5.8421,3.83193 -0.9162,2.38771 -1.6659,4.89891 -1.6659,5.58042 0,0.68151 -1.3489,0.40541 -2.9976,-0.61354 -1.9033,-1.17624 -2.2909,-0.70908 -1.0619,1.27954 1.1972,1.93701 -2.9666,8.03458 -10.912,15.97997 l -12.8477,12.84779 h -74.5453 -74.5451 z m 179.2067,-3.89469 c 2.2929,-5.35521 5.8442,-15.23649 7.8917,-21.95842 2.0475,-6.72191 4.8798,-12.9368 6.2941,-13.81085 1.4143,-0.87405 1.9239,-2.63679 1.1325,-3.91718 -0.7913,-1.28041 1.0356,-7.17819 4.0599,-13.10619 3.0242,-5.928 5.9201,-12.96691 6.4353,-15.64201 0.5151,-2.67512 2.4797,-8.08859 4.3656,-12.02995 3.396,-7.09725 3.7,-7.17322 31.6318,-7.90631 l 28.2028,-0.74019 -1.4056,5.93313 c -1.8671,7.88162 -8.9311,27.30598 -13.6312,37.48311 -7.5565,16.36156 -7.3794,16.4583 30.6244,16.73621 18.9218,0.13836 38.8973,0.0409 44.3902,-0.21662 12.0588,-0.56533 11.6509,0.52342 -8.6492,23.08473 l -14.2409,15.82729 h -65.6352 -65.6352 z M 98.694282,99.587513 c 0.999034,-3.213131 2.837658,-6.23394 4.085838,-6.712927 1.2482,-0.478986 1.6566,-1.86248 0.90757,-3.074435 -0.74903,-1.211955 0.49992,-6.856626 2.77545,-12.543735 l 4.13733,-10.340184 21.22567,-1.653885 c 21.90742,-1.707008 35.49692,-1.271835 35.51874,1.137431 0.007,0.759568 -3.07065,9.852004 -6.83895,20.205408 l -6.85147,18.824374 h -28.38829 c -28.246946,0 -28.379262,-0.0292 -26.571888,-5.842047 z m 195.864878,3.245577 c 0,-1.42806 1.1684,-2.59646 2.59647,-2.59646 1.42806,0 2.59646,-1.15506 2.59646,-2.566785 0,-4.798988 19.56363,-26.371951 28.01963,-30.897473 5.76304,-3.084281 46.53793,-4.003569 53.80962,-1.213159 4.78765,1.837188 14.10406,21.452169 15.54561,32.730059 l 0.91268,7.140288 h -51.74024 c -32.76251,0 -51.74023,-0.95235 -51.74023,-2.59647 z m 167.19422,-1.51059 c 0.86682,-2.258878 1.57602,-5.111189 1.57602,-6.338463 0,-1.227287 5.66719,-8.142175 12.59375,-15.366438 9.50881,-9.917509 14.43798,-13.124696 20.1226,-13.092862 4.14087,0.02318 39.66013,-0.10179 78.93166,-0.277587 39.27154,-0.175866 72.36391,-0.194835 73.5386,-0.04212 2.32371,0.302019 -2.77641,7.22828 -19.63432,26.664583 l -10.8938,12.559987 h -78.90527 c -70.88454,0 -78.74506,-0.41748 -77.32924,-4.10706 z m 193.78734,-16.015543 7.10604,-20.122611 82.09389,-0.298599 c 45.15166,-0.164241 82.09395,0.440841 82.09395,1.344614 0,2.929623 -13.48091,22.094524 -21.63754,30.760682 l -7.94225,8.438517 H 722.8447 648.43467 Z M 826.8346,104.57846 c 0,-2.06147 11.95521,-34.512695 13.75805,-37.344739 1.50321,-2.361493 19.03507,-2.96047 70.47044,-2.407625 60.12045,0.646177 69.31746,1.291585 75.42417,5.292859 7.61875,4.991931 14.31054,18.429329 14.31054,28.736049 v 6.574556 h -86.98168 c -47.8399,0 -86.98152,-0.383 -86.98152,-0.8511 z m 189.1059,-17.973274 c -0.485,-10.588129 0.2738,-19.682252 1.7343,-20.785106 1.4281,-1.078411 12.5279,-1.662608 24.6664,-1.298241 l 22.07,0.662507 0.7583,20.122611 0.7584,20.122603 h -24.5626 -24.5626 z m 70.5407,16.911554 c 0,-5.236281 25.0089,-37.347017 30.0779,-38.619265 3.172,-0.796142 13.7678,-1.057296 23.5461,-0.580329 l 17.7787,0.8672 1.2982,17.548576 c 0.714,9.651707 0.9088,18.706878 0.4328,20.122598 -1.0019,2.97962 -73.1337,3.63178 -73.1337,0.66122 z m 93.4727,0.30511 c 0,-1.35334 12.6766,-22.725497 20.2898,-34.207908 2.7099,-4.086942 55.0077,-6.790515 55.0077,-2.843658 0,4.069131 -17.1714,28.371292 -19.0521,26.963859 -0.9458,-0.707801 -1.1766,-0.54908 -0.5128,0.352708 0.6638,0.901799 0.039,3.822815 -1.3896,6.491169 -2.2689,4.23945 -5.8607,4.85154 -28.4697,4.85154 -14.2303,0 -25.8733,-0.72347 -25.8733,-1.60771 z m 72.701,-0.0731 c 0,-3.00523 11.2019,-33.290479 13.3873,-36.193546 2.3921,-3.177832 162.9298,-2.976043 163.5117,0.205542 0.1844,1.00803 -4.1981,7.78226 -9.7388,15.05385 -18.6996,24.541064 -10.7232,22.614914 -93.6505,22.614914 -40.4304,0 -73.5097,-0.75634 -73.5097,-1.68076 z m 183.7995,-18.441838 7.0407,-20.122611 23.3682,-0.763551 c 12.8525,-0.419955 25.8973,-0.130617 28.9886,0.642964 l 5.6204,1.406514 -5.2306,13.637593 c -2.8769,7.50068 -5.8343,16.266516 -6.5722,19.479647 -1.2943,5.636282 -2.3791,5.842042 -30.7987,5.842042 h -29.4571 z m 153.741,16.574148 c 0,-4.230791 10.2499,-30.126786 13.7543,-34.749404 2.9524,-3.894561 127.8145,-4.750836 130.1989,-0.892882 0.7997,1.293994 3.5105,1.814936 6.0239,1.157662 6.8234,-1.784365 19.0887,12.468328 21.3442,24.802734 1.0552,5.770423 1.3024,11.10787 0.5493,11.86101 -0.7532,0.75313 -39.7322,1.36933 -86.62,1.36933 -70.3502,0 -85.2506,-0.62021 -85.2506,-3.54845 z"
       id="path3"
       sodipodi:nodetypes="sssscsssssscssssscsssssssssssssscccccssscsssssssssssscssscccssssscccccsssssssscssssssssssscsscsssssssssssssscssssssscssscccssssscccssssscccccssscsscscccccccsscssscsssssscsccsscscssscccssssscccssssssscccssssssssscssssscccssssscssscsssssssscssssssssscsssccsssccccssssscssssscccccsssscsssssssscssssssssccsscsssccssssssss" /></g></svg>
