<?xml version="1.0" encoding="UTF-8" standalone="no"?>
<!-- Created with Inkscape (http://www.inkscape.org/) -->

<svg
   width="1920"
   height="1080"
   viewBox="0 0 1920 1080"
   version="1.1"
   id="svg1"
   xml:space="preserve"
   inkscape:version="1.4.2 (ebf0e940d0, 2025-05-08)"
   sodipodi:docname="store_hours.svg"
   inkscape:export-filename="../flyers/store_hours.png"
   inkscape:export-xdpi="96"
   inkscape:export-ydpi="96"
   xmlns:inkscape="http://www.inkscape.org/namespaces/inkscape"
   xmlns:sodipodi="http://sodipodi.sourceforge.net/DTD/sodipodi-0.dtd"
   xmlns="http://www.w3.org/2000/svg"
   xmlns:svg="http://www.w3.org/2000/svg"><sodipodi:namedview
     id="namedview1"
     pagecolor="#ffffff"
     bordercolor="#000000"
     borderopacity="0.25"
     inkscape:showpageshadow="2"
     inkscape:pageopacity="0.0"
     inkscape:pagecheckerboard="0"
     inkscape:deskcolor="#d1d1d1"
     inkscape:document-units="px"
     inkscape:zoom="0.52289065"
     inkscape:cx="886.4186"
     inkscape:cy="526.8788"
     inkscape:window-width="2499"
     inkscape:window-height="1022"
     inkscape:window-x="51"
     inkscape:window-y="35"
     inkscape:window-maximized="1"
     inkscape:current-layer="layer1"
     showguides="false"
     inkscape:export-bgcolor="#ffffffff" /><defs
     id="defs1" /><g
     inkscape:groupmode="layer"
     id="layer2"
     inkscape:label="background"
     sodipodi:insensitive="true"><rect
       style="fill:#000000"
       id="rect1"
       width="2417.3315"
       height="1275.6013"
       x="-242.88062"
       y="-95.622284" /></g><g
     inkscape:label="text"
     inkscape:groupmode="layer"
     id="layer1"><path
       style="fill:#000000;stroke-width:0.699768"
       id="path1"
       d="" /><g
       id="g7"
       transform="matrix(1.0956,0,0,1.0956,-98.02377,-37.71513)"><path
         style="fill:#ff0000;stroke-width:0.606713"
         d="m 1550.1652,197.43906 c -1.1609,-0.97582 -1.266,-2.91243 -0.4268,-7.86698 0.6123,-3.61487 0.7435,-6.26923 0.2913,-5.89858 -0.4522,0.37066 -1.5705,0.0604 -2.4853,-0.68953 -1.3878,-1.13766 -1.4073,-2.10218 -0.1182,-5.82439 3.2715,-9.4464 6.0298,-20.15978 4.5928,-17.83861 -0.8281,1.33769 -4.882,8.27429 -9.0086,15.41462 -4.1267,7.14034 -7.8812,12.97154 -8.3434,12.95823 -0.4623,-0.0133 -1.6032,-0.6646 -2.5355,-1.4473 -1.3475,-1.13117 -0.4503,-3.31534 4.3733,-10.64745 8.6683,-13.17627 18.1802,-25.23516 18.1802,-23.04819 0,1.02695 0.8045,1.45767 1.7879,0.95716 0.9833,-0.50051 1.7879,-0.0947 1.7879,0.9017 0,0.99645 1.1739,0.36112 2.6085,-1.41183 1.4347,-1.77296 3.0158,-3.22356 3.5137,-3.22356 1.6573,0 -1.571,-9.52833 -3.753,-11.07734 -1.6037,-1.13835 -2.8554,-0.70961 -4.9404,1.69208 -2.7291,3.14377 -2.7315,3.17041 -0.1064,1.17432 3.4691,-2.63801 6.8493,-0.0613 6.8493,5.22127 0,3.40226 -0.5362,3.79631 -5.3637,3.94176 -5.2375,0.1578 -10.1068,2.33928 -26.5458,11.89261 -8.0197,4.66064 -10.4034,4.79297 -10.4034,0.57759 0,-1.41855 4.5336,-4.05501 12.7532,-7.41639 l 12.7532,-5.21542 -113.7677,-0.81812 c -62.5723,-0.44997 -214.3352,-1.04769 -337.2511,-1.32828 -122.91578,-0.28059 -226.1651,-1.00275 -229.44285,-1.60481 -5.92793,-1.08884 389.64435,-3.36198 585.19405,-3.36281 l 102.4699,-4.2e-4 -10.6928,-7.31611 c -5.881,-4.02387 -10.8524,-7.49639 -11.0475,-7.71672 -0.1951,-0.22034 0.4609,-1.48259 1.458,-2.80499 1.6222,-2.15185 1.3662,-2.85601 -2.4376,-6.70439 -3.8776,-3.92301 -4.0847,-4.51953 -2.3628,-6.80351 2.0873,-2.76862 1.6626,-3.18112 18.4091,17.88333 l 7.5606,9.50992 -6.2602,-13.18976 c -4.8876,-10.29812 -5.9044,-13.48135 -4.6376,-14.51981 0.8924,-0.73152 2.0313,-0.99491 2.5309,-0.5853 0.4997,0.40961 0.09,-1.85471 -0.9111,-5.03184 -1.9942,-6.330991 -1.534,-10.150433 1.2232,-10.150433 1.0286,0 2.3551,2.557637 3.1488,6.071343 1.1566,5.12094 1.7995,5.96276 4.1068,5.37772 2.6062,-0.66086 2.7763,-0.1158 3.6,11.54399 0.4754,6.73068 1.2511,11.24729 1.7236,10.03691 0.4725,-1.2104 1.5355,-9.49301 2.3623,-18.40583 1.435,-15.470691 1.632,-16.205117 4.3486,-16.205117 3.1835,0 3.1945,0.05262 1.7506,8.300187 -0.9189,5.2493 -0.7792,5.9287 1.2203,5.9287 2.9512,0 2.888,0.70168 -1.2656,14.06229 -1.9381,6.23436 -3.0992,10.98699 -2.5801,10.56143 0.5192,-0.42559 4.3845,-6.82985 8.5896,-14.2317 8.2433,-14.50965 9.7225,-16.11163 11.8049,-12.78358 1.0584,1.69172 0.4168,3.5387 -2.9423,8.47065 -3.6686,5.38617 -3.913,6.1744 -1.6742,5.39782 2.2135,-0.7678 2.5186,-0.38647 1.9595,2.44928 -0.6451,3.27185 -0.5503,3.25788 3.6641,-0.5408 4.9886,-4.49631 6.8171,-4.85551 7.7798,-1.5282 0.4867,1.6826 -1.2935,3.74626 -6.1301,7.10584 -4.0001,2.7786 -5.4618,4.34074 -3.5382,3.78129 2.4666,-0.71738 3.2777,-0.35148 3.2777,1.47864 0,1.67204 -3.4449,3.9114 -11.0252,7.16683 l -11.0252,4.73491 17.1076,-0.91504 c 16.372,-0.87571 17.0883,-0.78566 16.6618,2.09523 -0.3935,2.65875 -1.4866,2.98931 -9.3599,2.83067 -4.9031,-0.0988 -7.1714,0.12201 -5.0409,0.49068 2.3425,0.40534 3.8737,1.56999 3.8737,2.94633 0,2.90559 -2.6936,2.86853 -12.5812,-0.17307 -4.3788,-1.34701 -8.1315,-2.22362 -8.3392,-1.94803 -0.2079,0.2756 5.7482,4.75707 13.2356,9.9588 7.4874,5.20175 13.6122,9.81345 13.6106,10.24822 0,0.43477 -0.4851,1.80141 -1.0747,3.03696 -0.9214,1.93117 -1.4626,1.91204 -3.8554,-0.13626 -9.7754,-8.36797 -10.0313,-8.54062 -8.2573,-5.57313 1.173,1.96205 1.3008,3.30647 0.4249,4.46834 -0.876,1.16187 -2.8152,-0.16641 -6.4454,-4.41472 -2.8558,-3.34213 -5.3732,-6.61835 -5.5943,-7.28047 -0.2211,-0.66212 -1.441,-1.94145 -2.7108,-2.84296 -1.5953,-1.1324 -0.6147,1.86707 3.1719,9.70304 3.7664,7.79409 5.0963,11.85242 4.2513,12.97331 -0.8451,1.12093 -1.8084,0.99424 -3.0794,-0.40495 -1.4397,-1.58475 -1.3245,-0.50092 0.5193,4.88902 3.0961,9.05129 3.051,11.21796 -0.2209,10.59232 -1.8034,-0.34485 -2.9892,-2.11813 -3.736,-5.58711 -0.8297,-3.85451 -1.7029,-5.00004 -3.6154,-4.74295 -2.2194,0.29834 -2.643,-0.79743 -3.5351,-9.14698 -1.6662,-15.59483 -2.2345,-15.08076 -4.2312,3.82717 -1.8702,17.71051 -2.7375,20.35107 -5.8306,17.75126 z"
         id="path2"
         sodipodi:nodetypes="ssssssssssssssssssssssscsssscsssssscsssssssssssssssssssssssssscsssssssscsssssssssssssssss" /><path
         style="fill:#ffffff;stroke-width:0.803039"
         d="m 548.74278,220.34911 c -14.85855,-0.60676 -14.99197,-0.65515 -15.25863,-5.53517 -0.14795,-2.70768 -0.35236,-6.28001 -0.45423,-7.93849 -0.35389,-5.76153 -2.24973,-5.01144 -10.04262,3.97335 l -7.83657,9.03516 h -43.38954 c -27.71506,0 -43.38953,-0.65636 -43.38953,-1.81692 0,-0.99931 0.81762,-1.81692 1.81692,-1.81692 0.99931,0 1.81693,-0.87445 1.81693,-1.94323 0,-1.71481 15.9676,-23.27355 28.9816,-39.12969 2.5473,-3.10361 7.88579,-9.84893 11.86331,-14.9896 l 7.23185,-9.34669 h 20.47622 c 11.26192,0 20.47622,0.69252 20.47622,1.53891 0,1.46246 -1.47354,3.37875 -11.88381,15.45445 -2.45767,2.85085 -4.4685,5.83955 -4.4685,6.64155 0,0.802 -2.97045,5.01041 -6.601,9.35201 l -6.601,7.89384 18.64764,0.52039 c 10.25621,0.28623 19.01738,0.15068 19.46928,-0.30121 0.45189,-0.4519 -0.47221,-8.9598 -2.05358,-18.90645 -1.58135,-9.94664 -2.87519,-19.00926 -2.87519,-20.13915 0,-1.39122 5.87935,-2.05434 18.2142,-2.05434 18.09704,0 18.22614,0.0314 20.07132,4.8846 1.02142,2.68653 1.69722,6.57021 1.5018,8.63039 -0.19543,2.06017 0.11913,4.9722 0.69902,6.47115 0.57989,1.49897 1.42361,5.58704 1.87493,9.08461 0.45133,3.49758 1.77443,13.22631 2.94023,21.61941 2.34011,16.84761 1.80931,20.34963 -3.00102,19.79999 -1.78015,-0.20341 -9.98197,-0.64528 -18.22625,-0.98195 z m 31.05116,-0.93179 c -0.87641,-1.42199 3.44145,-8.17465 12.77181,-19.97374 l 5.38788,-6.81345 h 36.03436 36.03437 v -5.45078 -5.45076 l -21.34885,-0.10256 c -11.74185,-0.0564 -24.13289,-1.07842 -27.53562,-2.27115 -7.66928,-2.68825 -16.30703,-13.13345 -18.3494,-22.18902 l -1.53962,-6.82647 39.35611,1.32455 c 21.64585,0.72851 42.44966,1.63231 46.23068,2.00847 9.05595,0.90091 14.97117,5.40864 19.73685,15.04054 3.17087,6.40865 3.71224,9.93159 2.90098,18.87825 -0.56182,6.19588 -2.05434,11.66931 -3.41772,12.53358 -1.33119,0.84387 -1.75146,1.54683 -0.93393,1.56213 2.44395,0.0458 -6.01147,10.83399 -11.11565,14.18242 -4.11323,2.69836 -11.86595,3.22544 -59.04981,4.01463 -29.87322,0.49965 -54.69631,0.28967 -55.16244,-0.46664 z m 270.55798,0.85731 c -10.24288,-0.28479 -18.62346,-0.92437 -18.62346,-1.42131 0,-0.86564 2.91768,-8.74188 18.12742,-48.93473 l 6.87561,-18.16922 20.2031,-0.51374 c 11.1117,-0.28255 20.20311,-0.18094 20.20311,0.2258 0,0.40674 -1.2488,4.31719 -2.77505,8.68988 l -2.77513,7.95035 6.86315,-7.42989 6.86315,-7.42991 26.34537,-1.19383 c 14.48999,-0.65661 31.91941,-1.19682 38.73205,-1.20047 11.99938,-0.006 12.34829,0.12118 11.15827,4.08142 -0.6756,2.24844 -4.15178,7.13845 -7.72481,10.86669 -6.7977,7.0929 -16.61137,11.19785 -31.90745,13.34647 l -8.81967,1.2389 19.69022,19.75146 19.69021,19.75146 -23.58903,-0.0136 -23.58903,-0.0136 -19.05116,-18.09131 c -10.47818,-9.95021 -19.51298,-17.50705 -20.07727,-16.79298 -1.11052,1.40514 -7.30322,17.14724 -11.0285,28.03484 -1.27032,3.71271 -3.17778,6.98317 -4.23867,7.2677 -1.06097,0.28452 -10.30954,0.2843 -20.55243,-4.9e-4 z m 517.15948,-1.23974 c -0.4505,-4.04066 0.5894,-8.69064 3.3847,-15.13554 1.6048,-3.69981 3.1415,-7.54454 3.415,-8.54385 1.7997,-6.57723 7.2508,-20.08332 8.297,-20.55776 0.6934,-0.31439 0.8421,-1.66251 0.3304,-2.99582 -0.5116,-1.33333 -0.057,-2.96399 1.0105,-3.6237 1.0675,-0.65971 1.9408,-3.19526 1.9408,-5.63454 0,-2.4393 0.954,-4.43508 2.1198,-4.43508 1.1659,0 1.5817,-0.53798 0.9242,-1.19553 -0.6575,-0.65753 -0.2848,-2.29276 0.8281,-3.63384 2.4673,-2.9729 41.5511,-3.5574 41.5511,-0.6214 0,0.99931 -0.8659,1.81692 -1.9242,1.81692 -1.0583,0 -1.496,0.69272 -0.9728,1.53937 0.5233,0.84666 -1.8458,9.36556 -5.2646,18.93089 l -6.2159,17.39151 6.7311,-0.83485 c 16.4974,-2.04621 36.7372,-16.37943 44.5883,-31.57615 l 4.2241,-8.17615 20.2977,-0.51374 c 12.4717,-0.31566 20.2978,0.17678 20.2978,1.2772 0,5.54734 -12.3075,26.05039 -14.7364,24.54928 -0.8659,-0.53517 -1.127,0.19254 -0.5804,1.61711 1.5243,3.97227 -20.3219,24.90967 -32.9831,31.61105 -13.4978,7.14416 -18.845,8.11875 -48.9055,8.9138 -12.991,0.34359 -29.1389,0.86825 -35.8843,1.16592 -7.4816,0.33016 -12.3457,-0.19048 -12.4734,-1.3351 z M 324.00353,212.3189 c 1.46801,-4.16078 3.57589,-8.65766 4.68418,-9.99307 1.10829,-1.33541 1.51808,-2.42802 0.91066,-2.42802 -0.60743,0 0.59682,-4.29248 2.67613,-9.53884 2.0793,-5.24636 4.0433,-10.76527 4.36443,-12.26423 0.32114,-1.49896 2.49639,-8.03988 4.83388,-14.53537 l 4.25,-11.81 20.52607,-0.51463 c 20.21369,-0.50681 20.49567,-0.45785 18.52887,3.21716 -1.09846,2.05249 -1.50233,4.53251 -0.89748,5.51117 0.60483,0.97866 0.23384,1.77937 -0.82444,1.77937 -1.05829,0 -1.79435,0.61321 -1.6357,1.36269 0.15864,0.74949 -0.21963,2.58912 -0.84061,4.08807 -0.62098,1.49897 -3.09127,8.03989 -5.48953,14.53539 l -4.36045,11.80999 31.54644,-0.57134 c 17.35055,-0.31424 31.54545,0.0946 31.54423,0.90846 -0.002,1.54158 -4.94987,7.60857 -15.65311,19.1948 l -6.29421,6.81346 h -45.26923 -45.26924 z m 384.17421,7.01359 c 0,-0.98156 12.21884,-36.25589 18.0003,-51.96469 3.09082,-8.39808 5.61968,-15.55221 5.61968,-15.89807 0,-0.34584 9.36631,-0.62882 20.81402,-0.62882 h 20.81401 l -2.67234,7.57423 -2.67235,7.57422 4.04149,-3.48615 c 2.22281,-1.91739 5.71007,-4.96397 7.74947,-6.77019 3.21923,-2.85115 6.76934,-3.23359 26.93239,-2.90128 12.77339,0.21052 22.99364,0.91396 22.71153,1.5632 -0.28211,0.64925 -6.73996,7.06492 -14.35082,14.25705 l -13.838,13.0766 h -19.2742 -19.27419 l -2.81871,5.45076 -2.8187,5.45078 h 38.20204 c 21.01114,0 38.20206,0.48424 38.20206,1.0761 0,1.57608 -6.47287,9.63625 -14.82124,18.4558 l -7.3094,7.72193 h -51.61852 c -28.3902,0 -51.61852,-0.24816 -51.61852,-0.55147 z m 286.12006,-3.53661 c -0.56261,-2.24844 -1.19143,-17.57872 -1.3973,-34.06729 l -0.37437,-29.97922 17.71497,-0.52002 17.7151,-0.52003 0.058,5.06233 0.058,5.06233 3.7278,-4.99654 3.7278,-4.99653 h 29.8278 c 29.6118,0 29.8276,0.0292 29.8276,4.03812 v 4.03812 l 2.8284,-4.03812 c 2.5771,-3.67941 4.3256,-4.03812 19.6833,-4.03812 9.2702,0 17.3349,0.47995 17.9215,1.06656 0.5866,0.58661 -4.3021,9.37597 -10.8639,19.53191 -33.8271,52.35618 -29.9537,48.44458 -47.9712,48.44458 -7.7486,0 -14.5385,-0.72855 -15.0888,-1.61899 -0.5503,-0.89044 -1.9404,-9.88421 -3.0892,-19.98615 -1.1487,-10.10193 -2.609,-18.36716 -3.2452,-18.36716 -1.4845,0 -8.2529,7.75498 -8.2929,9.50193 -0.017,0.72917 -4.7732,7.88331 -10.5698,15.89807 l -10.5394,14.5723 h -15.3171 c -14.37019,0 -15.38045,-0.25277 -16.34018,-4.08808 z m 136.4222,0 c 0.6936,-2.24844 2.4005,-6.32795 3.7931,-9.06558 1.3926,-2.73761 2.5378,-5.38628 2.5449,-5.88592 0.018,-1.32591 0.6605,-3.2563 9.2221,-27.74617 l 7.7811,-22.2573 h 20.5259 c 11.2893,0 20.5259,0.30601 20.5259,0.68002 0,0.37402 -1.2271,4.15806 -2.727,8.40898 l -2.7268,7.72896 8.1371,-7.50051 8.1371,-7.50053 h 21.7364 c 11.955,0 22.1825,0.72181 22.7277,1.60403 1.2796,2.07025 -22.5962,24.03727 -24.7075,22.73239 -0.878,-0.54259 -1.3716,0.0963 -1.097,1.41967 0.3828,1.84517 -4.3434,2.61803 -20.2698,3.31467 l -20.769,0.90846 -1.3311,4.99653 -1.3313,4.99655 32.0933,0.19252 c 17.6513,0.10589 34.4575,0.0321 37.3471,-0.16393 4.2338,-0.28724 5.0275,0.23337 4.0881,2.68147 -0.6411,1.67084 -1.1658,3.42809 -1.1658,3.90499 0,0.4769 -0.9439,0.2837 -2.0976,-0.42933 -1.3319,-0.8231 -1.6031,-0.49619 -0.7431,0.89538 0.8378,1.35546 -2.0759,5.62234 -7.6358,11.18227 l -8.9904,8.99046 h -52.1644 -52.1643 z m 125.4031,-2.72538 c 1.6045,-3.7474 4.0896,-10.662 5.5224,-15.36579 1.4327,-4.70378 3.4147,-9.05276 4.4044,-9.66439 0.9896,-0.61163 1.3462,-1.84514 0.7924,-2.74112 -0.5537,-0.89599 0.7247,-5.02306 2.841,-9.17128 2.1163,-4.14823 4.1427,-9.07383 4.5032,-10.94578 0.3605,-1.87196 1.7353,-5.66013 3.055,-8.41817 2.3764,-4.96642 2.5891,-5.01959 22.1349,-5.53258 l 19.7354,-0.51796 -0.9836,4.15181 c -1.3066,5.51531 -6.2497,19.10785 -9.5387,26.22947 -5.2878,11.44929 -5.1639,11.51699 21.43,11.71146 13.2408,0.0968 27.2191,0.0286 31.0628,-0.15158 8.4384,-0.3956 8.1529,0.36627 -6.0524,16.15395 l -9.9653,11.07542 h -45.9294 -45.9294 z M 351.27018,137.66822 c 0.69909,-2.24844 1.9857,-4.36231 2.85914,-4.69749 0.87345,-0.33518 1.15923,-1.3033 0.63509,-2.15139 -0.52415,-0.84808 0.34983,-4.79804 1.94217,-8.7777 l 2.89517,-7.23572 14.85304,-1.15734 c 15.3301,-1.19451 24.83959,-0.88999 24.85486,0.79594 0.005,0.53152 -2.14874,6.89411 -4.78567,14.13909 l -4.79444,13.17269 h -19.86521 c -19.7663,0 -19.85889,-0.0204 -18.59415,-4.08808 z m 137.05992,2.27115 c 0,-0.99931 0.81761,-1.81692 1.81692,-1.81692 0.99931,0 1.81692,-0.80827 1.81692,-1.79615 0,-3.35818 13.69,-18.45424 19.60724,-21.62105 4.03279,-2.15828 32.56574,-2.80157 37.65423,-0.84893 3.35024,1.2856 9.86957,15.01153 10.87832,22.90344 l 0.63866,4.99654 h -36.20615 c -22.92615,0 -36.20614,-0.66643 -36.20614,-1.81693 z m 116.99712,-1.05706 c 0.60657,-1.58069 1.10284,-3.57664 1.10284,-4.43545 0,-0.85882 3.96572,-5.69763 8.8127,-10.75294 6.65396,-6.93995 10.10324,-9.18424 14.08115,-9.16196 2.89765,0.0162 27.75288,-0.0712 55.23383,-0.19425 27.48095,-0.12306 50.63792,-0.13634 51.45993,-0.0295 1.62606,0.21134 -1.94284,5.05812 -13.73946,18.65901 l -7.62313,8.78908 h -55.21536 c -49.60271,0 -55.10325,-0.29214 -54.1125,-2.87399 z m 135.60612,-11.20716 4.97258,-14.08115 57.44665,-0.20895 c 31.59567,-0.11493 57.44669,0.30848 57.44669,0.94092 0,2.05005 -9.4335,15.46103 -15.14125,21.52533 l -5.55773,5.905 h -52.06979 -52.06974 z m 119.86592,13.48558 c 0,-1.44255 8.36587,-24.15087 9.62744,-26.13265 1.0519,-1.65249 13.32013,-2.07164 49.31294,-1.68477 42.07035,0.45217 48.50612,0.90381 52.7794,3.70377 5.33136,3.49319 10.01405,12.89625 10.01405,20.10856 v 4.60066 h -60.86697 c -33.47681,0 -60.86686,-0.26801 -60.86686,-0.59557 z m 132.33021,-12.57712 c -0.33939,-7.40923 0.19159,-13.773 1.2136,-14.54475 0.99934,-0.75463 8.76663,-1.16344 17.26073,-0.90846 l 15.4439,0.4636 0.5306,14.08115 0.5307,14.08115 h -17.1881 -17.18809 z m 49.36213,11.83416 c 0,-3.66418 17.5004,-26.13424 21.0475,-27.02452 2.2197,-0.55711 9.6343,-0.73986 16.4768,-0.40609 l 12.441,0.60684 0.9084,12.27992 c 0.4996,6.75396 0.636,13.09047 0.3029,14.08115 -0.7011,2.08504 -51.1766,2.5414 -51.1766,0.4627 z m 65.4091,0.21351 c 0,-0.94703 8.8707,-15.90257 14.1982,-23.93759 1.8963,-2.85991 38.4926,-4.75179 38.4926,-1.9899 0,2.84744 -12.016,19.85331 -13.332,18.86843 -0.6619,-0.49529 -0.8234,-0.38422 -0.3589,0.24682 0.4645,0.63105 0.027,2.67508 -0.9724,4.54231 -1.5877,2.96663 -4.1011,3.39495 -19.9222,3.39495 -9.9579,0 -18.1053,-0.50626 -18.1053,-1.12502 z m 50.8739,-0.0512 c 0,-2.10296 7.8387,-23.2956 9.368,-25.32707 1.6739,-2.22375 114.013,-2.08254 114.4202,0.14383 0.129,0.70539 -2.9377,5.44577 -6.8149,10.5342 -13.0854,17.17304 -7.5038,15.82518 -65.5336,15.82518 -28.2919,0 -51.4397,-0.52926 -51.4397,-1.17614 z m 128.6169,-12.905 4.9269,-14.08115 16.3523,-0.53431 c 8.9937,-0.29387 18.1221,-0.0914 20.2853,0.44992 l 3.9329,0.98424 -3.6602,9.54314 c -2.0131,5.24874 -4.0826,11.38279 -4.599,13.63123 -0.9057,3.94409 -1.6648,4.08807 -21.5519,4.08807 h -20.6131 z m 107.583,11.59805 c 0,-2.96057 7.1726,-21.08175 9.6248,-24.31651 2.066,-2.72529 89.4405,-3.32448 91.109,-0.62481 0.5596,0.9055 2.4565,1.27004 4.2153,0.8101 4.7748,-1.24864 13.3577,8.72493 14.936,17.35615 0.7384,4.03795 0.9114,7.77293 0.3844,8.29995 -0.5271,0.52702 -27.8033,0.95821 -60.6139,0.95821 -49.2288,0 -59.6556,-0.434 -59.6556,-2.48309 z"
         id="path3"
         sodipodi:nodetypes="sssscsssssscssssscsssssssssssssscccccssscsssssssssssscssscccssssscccccsssssssscssssssssssscsscsssssssssssssscssssssscssscccssssscccssssscccccssscsscscccccccsscssscsssssscsccsscscssscccssssscccssssssscccssssssssscssssscccssssscssscsssssssscssssssssscsssccsssccccssssscssssscccccsssscsssssssscssssssssccsscsssccssssssss" /></g><text
       xml:space="preserve"
       style="font-size:95.539px;font-family:'San Francisco Display';-inkscape-font-specification:'San Francisco Display';text-align:center;writing-mode:lr-tb;direction:ltr;text-anchor:middle;opacity:1;fill:#ffffff;stroke-width:1.49279"
       x="940.12628"
       y="365.32748"
       id="text1"><tspan
         sodipodi:role="line"
         id="tspan1"
         x="940.12628"
         y="365.32748"
         style="font-style:normal;font-variant:normal;font-weight:bold;font-stretch:normal;font-size:95.539px;font-family:P052;-inkscape-font-specification:'P052 Bold';fill:#ffffff;stroke-width:1.49279">STORE HOURS</tspan></text><text
       xml:space="preserve"
       style="font-style:normal;font-variant:normal;font-weight:bold;font-stretch:normal;font-size:293.184px;font-family:'Liberation Serif';-inkscape-font-specification:'Liberation Serif Bold';text-align:center;writing-mode:lr-tb;direction:ltr;text-anchor:middle;opacity:1;fill:#ffcc00;stroke-width:3.92655"
       x="947.19763"
       y="654.29272"
       id="text2"><tspan
         sodipodi:role="line"
         id="tspan2"
         x="947.19763"
         y="654.29272"
         style="fill:#ffcc00;stroke-width:3.92655">7:15 <tspan
   style="font-size:212.993px;fill:#ffcc00;stroke-width:3.92655"
   id="tspan4">am</tspan> - 8 <tspan
   style="font-size:212.993px;fill:#ffcc00;stroke-width:3.92655"
   id="tspan7">am</tspan></tspan></text><text
       xml:space="preserve"
       style="font-style:normal;font-variant:normal;font-weight:bold;font-stretch:normal;font-size:293.184px;font-family:'Liberation Serif';-inkscape-font-specification:'Liberation Serif Bold';text-align:center;writing-mode:lr-tb;direction:ltr;text-anchor:middle;opacity:1;fill:#f9f9f9;stroke-width:3.92655"
       x="951.56384"
       y="953.38971"
       id="text3"><tspan
         sodipodi:role="line"
         id="tspan3"
         x="951.5639"
         y="953.38971"
         style="fill:#f9f9f9;stroke-width:3.92655">9:15 <tspan
   style="font-size:212.993px;fill:#f9f9f9;stroke-width:3.92655"
   id="tspan5">am</tspan> - 10 <tspan
   style="font-size:212.993px;fill:#f9f9f9;stroke-width:3.92655"
   id="tspan6">am</tspan></tspan></text><path
       style="opacity:0.8;fill:#ffffff;stroke:#f61111;stroke-width:4.9521;stroke-dasharray:19.8084, 9.9042;stroke-dashoffset:0;stroke-opacity:1"
       d="M 55.150721,712.20745 H 1852.3537"
       id="path4" /><text
       xml:space="preserve"
       style="font-style:normal;font-variant:normal;font-weight:bold;font-stretch:normal;font-size:44.1328px;font-family:P052;-inkscape-font-specification:'P052 Bold';text-align:start;writing-mode:lr-tb;direction:ltr;text-anchor:start;opacity:0.6;fill:#ffffff;stroke-width:0.330999"
       x="1601.3892"
       y="-779.38855"
       id="text9"
       transform="rotate(42.008037)"
       inkscape:transform-center-x="34.774352"
       inkscape:transform-center-y="6.660737e-06"><tspan
         sodipodi:role="line"
         id="tspan9"
         x="1601.3892"
         y="-779.38855"
         style="font-style:normal;font-variant:normal;font-weight:bold;font-stretch:normal;font-family:'Nimbus Mono PS';-inkscape-font-specification:'Nimbus Mono PS Bold';fill:#ff0000;stroke-width:0.330999">UPDATE</tspan></text><text
       xml:space="preserve"
       style="font-style:normal;font-variant:normal;font-weight:bold;font-stretch:normal;font-size:44.1328px;font-family:P052;-inkscape-font-specification:'P052 Bold';text-align:start;writing-mode:lr-tb;direction:ltr;text-anchor:start;opacity:0.6;fill:#ffffff;stroke-width:0.330999"
       x="1846.9467"
       y="-606.76434"
       id="text10"
       transform="rotate(42.008037)"
       inkscape:transform-center-x="34.774352"
       inkscape:transform-center-y="6.660737e-06"><tspan
         sodipodi:role="line"
         id="tspan10"
         x="1846.9467"
         y="-606.76434"
         style="font-style:normal;font-variant:normal;font-weight:bold;font-stretch:normal;font-family:'Nimbus Mono PS';-inkscape-font-specification:'Nimbus Mono PS Bold';fill:#ff0000;stroke-width:0.330999">UPDATE</tspan></text></g></svg>
